<svg width="142" height="36" viewBox="0 0 142 36" fill="none" xmlns="http://www.w3.org/2000/svg">
<g clip-path="url(#clip0_1_3)">
<path d="M2.448 1.296H25.488V5.76H16.176V36H11.52V5.76H2.448V1.296Z" fill="#FF8A00"/>
<path d="M30.4346 23.712H39.4106V27.648H30.4346V23.712Z" fill="url(#paint0_linear_1_3)"/>
<path d="M72.9488 33.408C72.3728 33.792 71.5888 34.224 70.5968 34.704C69.6048 35.184 68.4368 35.584 67.0928 35.904C65.7808 36.224 64.3408 36.384 62.7728 36.384C60.0848 36.352 57.6528 35.872 55.4768 34.944C53.3328 34.016 51.5088 32.752 50.0048 31.152C48.5008 29.552 47.3328 27.712 46.5008 25.632C45.7008 23.52 45.3008 21.28 45.3008 18.912C45.3008 16.32 45.7168 13.936 46.5488 11.76C47.4128 9.552 48.6128 7.648 50.1488 6.048C51.6848 4.416 53.4928 3.152 55.5728 2.256C57.6848 1.36 59.9888 0.912 62.4848 0.912C64.5648 0.912 66.4528 1.2 68.1488 1.776C69.8448 2.32 71.3008 2.976 72.5168 3.744L70.6448 8.064C69.6848 7.424 68.5168 6.816 67.1407 6.24C65.7968 5.664 64.2928 5.376 62.6288 5.376C60.9328 5.376 59.3328 5.712 57.8288 6.384C56.3248 7.056 54.9968 8 53.8448 9.216C52.6928 10.432 51.7808 11.856 51.1088 13.488C50.4688 15.088 50.1488 16.816 50.1488 18.672C50.1488 20.56 50.4368 22.32 51.0128 23.952C51.6208 25.552 52.4688 26.944 53.5568 28.128C54.6768 29.312 56.0208 30.24 57.5888 30.912C59.1568 31.584 60.9168 31.92 62.8688 31.92C64.6288 31.92 66.1968 31.648 67.5728 31.104C68.9488 30.56 70.0848 29.952 70.9808 29.28L72.9488 33.408ZM77.3329 36L92.5009 -0.144001H92.7889L107.909 36H102.581L91.2529 7.152L94.5649 4.992L81.8929 36H77.3329ZM86.2129 22.848H99.1249L100.661 26.88H84.8689L86.2129 22.848ZM123.661 1.296C125.421 1.296 127.037 1.536 128.509 2.016C130.013 2.464 131.309 3.152 132.397 4.08C133.517 4.976 134.381 6.096 134.989 7.44C135.629 8.752 135.949 10.288 135.949 12.048C135.949 13.424 135.741 14.768 135.325 16.08C134.941 17.392 134.285 18.592 133.357 19.68C132.429 20.736 131.213 21.6 129.709 22.272C128.237 22.912 126.413 23.232 124.237 23.232H119.101V36H114.445V1.296H123.661ZM124.141 18.768C125.517 18.768 126.653 18.56 127.549 18.144C128.477 17.728 129.197 17.2 129.709 16.56C130.221 15.888 130.589 15.168 130.813 14.4C131.037 13.632 131.149 12.912 131.149 12.24C131.149 11.536 131.021 10.816 130.765 10.08C130.541 9.312 130.157 8.608 129.613 7.968C129.101 7.328 128.413 6.8 127.549 6.384C126.717 5.968 125.693 5.76 124.477 5.76H119.101V18.768H124.141ZM129.853 21.408L138.925 36H133.549L124.333 21.552L129.853 21.408Z" fill="black"/>
</g>
<defs>
<linearGradient id="paint0_linear_1_3" x1="71" y1="0" x2="-6.5" y2="0" gradientUnits="userSpaceOnUse">
<stop offset="0.276372"/>
<stop offset="0.757505" stop-color="#FF8A00"/>
</linearGradient>
<clipPath id="clip0_1_3">
<rect width="142" height="36" fill="white"/>
</clipPath>
</defs>
</svg>
