<svg width="168" height="62" viewBox="0 0 168 62" fill="none" xmlns="http://www.w3.org/2000/svg">
<g clip-path="url(#clip0_3_53)">
<path d="M83.8905 36.0187H165.23C165.539 36.0416 165.85 36.0381 166.159 36.0083C166.892 35.8816 168.037 36.133 167.999 35.0017C167.963 33.9166 166.835 34.1778 166.095 34.0511C165.918 34.0347 165.74 34.033 165.563 34.0459C111.205 34.0459 56.8456 34.0478 2.48604 34.0517C1.95583 34.0538 1.42657 34.0972 0.90298 34.1817C0.45343 34.2525 0.0173644 34.4416 0.00387793 34.9978C-0.0153885 35.6398 0.473334 35.8426 0.967197 35.8959C1.80361 35.9785 2.64365 36.018 3.48403 36.0141C30.2853 36.0193 57.0875 36.0208 83.8905 36.0187Z" fill="#FEFEFE"/>
<path d="M14.6348 56.1402C14.6348 55.1999 14.602 54.2558 14.6463 53.3201C14.6765 52.6703 14.4383 52.4695 13.8115 52.4844C12.2624 52.5202 10.7121 52.4844 9.16247 52.5039C8.85485 52.5039 8.35392 52.3369 8.39181 52.9263C8.41815 53.3675 8.82852 53.2837 9.12394 53.2856C10.3634 53.2934 11.6067 53.3422 12.8424 53.2713C13.6914 53.2226 13.9027 53.5436 13.8699 54.3461C13.8127 55.7315 13.8301 57.1214 13.8635 58.5087C13.878 58.7739 13.8276 59.0386 13.717 59.2794C13.6063 59.5202 13.4387 59.7298 13.229 59.8895C12.5206 60.4848 11.6942 60.9192 10.8055 61.1634C9.91681 61.4075 8.98668 61.4556 8.07803 61.3045C7.16938 61.1533 6.30343 60.8065 5.53876 60.2874C4.77409 59.7682 4.12856 59.089 3.64585 58.2955C2.61199 56.2311 2.05583 53.9558 2.01944 51.6418C1.98306 49.3278 2.46741 47.0357 3.43585 44.939C3.69636 44.3012 4.07899 43.7219 4.56171 43.2343C5.04443 42.7467 5.6177 42.3606 6.24852 42.0981C6.87934 41.8356 7.55524 41.702 8.23731 41.7049C8.91939 41.7078 9.59416 41.8472 10.2228 42.115C11.0707 42.4537 11.8247 42.9954 12.4202 43.6937C13.0158 44.392 13.435 45.226 13.6419 46.1243C13.7325 46.4219 13.7704 46.9443 14.2841 46.7916C14.8287 46.6305 14.5025 46.2068 14.4241 45.9027C14.195 44.7997 13.6709 43.7815 12.9091 42.9591C12.1473 42.1368 11.177 41.5418 10.104 41.2391C8.55928 40.7565 6.8896 40.9013 5.44858 41.6427C4.00756 42.3842 2.9084 43.6641 2.3839 45.2113C1.29927 48.2585 1.02878 51.5413 1.59976 54.7282C1.59512 55.8121 1.82866 56.8835 2.28348 57.8649C2.7383 58.8462 3.40304 59.713 4.22959 60.4026C5.05614 61.0921 6.02384 61.5871 7.06268 61.8518C8.10152 62.1165 9.18552 62.1443 10.2363 61.9331C10.848 61.9761 11.4616 61.8813 12.0328 61.6554C12.604 61.4295 13.1185 61.0782 13.5393 60.6268C13.9601 60.1755 14.2767 59.6353 14.4662 59.0451C14.6558 58.455 14.7136 57.8297 14.6354 57.2143L14.6348 56.1402Z" fill="#FEFEFE"/>
<path d="M120.441 51.5715C120.441 54.6151 120.473 57.6594 120.421 60.7024C120.406 61.5822 120.652 61.859 121.529 61.8466C124.671 61.8012 127.815 61.8363 130.958 61.8187C131.31 61.8187 131.915 62.0487 131.938 61.4756C131.967 60.7485 131.29 61.0448 130.922 61.0416C128.045 61.0156 125.166 61.0019 122.289 61.0416C121.492 61.0533 121.203 60.8349 121.22 59.9915C121.269 57.5756 121.281 55.1564 121.215 52.7411C121.188 51.7989 121.554 51.6429 122.371 51.6585C124.716 51.7047 127.063 51.6943 129.409 51.6618C129.827 51.6559 130.593 51.9815 130.603 51.2856C130.615 50.4408 129.785 50.8398 129.35 50.8307C127.092 50.7839 124.833 50.7657 122.577 50.8307C121.587 50.8587 121.164 50.6358 121.214 49.5259C121.303 47.4264 121.285 45.3185 121.219 43.2164C121.19 42.295 121.425 41.9896 122.38 42.0111C125.256 42.076 128.135 42.0436 131.012 42.0228C131.349 42.0228 131.947 42.2788 131.949 41.6459C131.949 41.0266 131.359 41.2528 131.012 41.2508C127.824 41.2346 124.637 41.2697 121.45 41.2216C120.601 41.2092 120.423 41.5185 120.429 42.3061C120.465 45.3939 120.442 48.483 120.441 51.5715Z" fill="#FEFEFE"/>
<path d="M88.7161 51.511H88.727C88.727 54.5975 88.7508 57.6841 88.711 60.7693C88.7007 61.5653 88.8837 61.8629 89.7347 61.8492C92.9187 61.7992 96.1041 61.8362 99.2895 61.8187C99.6325 61.8187 100.227 62.0325 100.207 61.4035C100.187 60.7745 99.5946 61.0448 99.26 61.0422C96.4734 61.0188 93.6849 60.9772 90.9003 61.0545C89.7835 61.0857 89.4874 60.7348 89.4964 59.625C89.5523 53.9452 89.5375 48.2647 89.515 42.5842C89.515 42.1293 89.858 41.2956 89.0757 41.3021C88.4245 41.3073 88.736 42.0949 88.7315 42.5211C88.702 45.518 88.7161 48.5148 88.7161 51.511Z" fill="#FEFEFE"/>
<path d="M20.0223 51.4402H20.0287C20.0287 54.5313 20.057 57.6223 20.0114 60.7128C19.9979 61.5958 20.2683 61.8733 21.143 61.8597C24.2898 61.8109 27.4334 61.8434 30.579 61.8161C30.9521 61.8129 31.6213 62.0923 31.5969 61.3755C31.5764 60.7849 30.9669 61.0448 30.6259 61.0416C27.8798 61.0156 25.1311 60.961 22.3869 61.0481C21.2309 61.0844 20.8751 60.7881 20.888 59.5789C20.9522 53.9354 20.9259 48.2913 20.8989 42.6472C20.8989 42.1833 21.2361 41.3216 20.5027 41.3171C19.6113 41.3119 20.0531 42.2216 20.0435 42.7057C20.0017 45.6168 20.0223 48.5285 20.0223 51.4402Z" fill="#FEFEFE"/>
<path d="M155.038 51.4896C155.038 54.5787 155.061 57.6678 155.023 60.7569C155.013 61.5562 155.221 61.8577 156.057 61.8466C159.245 61.8057 162.433 61.8369 165.621 61.8246C165.982 61.8246 166.561 62.0078 166.584 61.4308C166.606 60.805 166.006 61.0292 165.666 61.0279C162.832 61.013 159.997 60.9824 157.165 61.0494C156.149 61.0727 155.808 60.8109 155.816 59.7251C155.869 53.9504 155.847 48.1744 155.828 42.399C155.828 42.0163 156.117 41.3346 155.469 41.3086C154.8 41.282 155.053 41.9714 155.05 42.3561C155.029 45.4004 155.039 48.4447 155.038 51.4896Z" fill="#FEFEFE"/>
<path d="M83.8905 36.0187C57.0888 36.0187 30.2858 36.0171 3.48145 36.0141C2.64106 36.018 1.80103 35.9785 0.964612 35.8959C0.470107 35.8445 -0.0186185 35.6398 0.00129017 34.9978C0.0179877 34.439 0.450839 34.2525 0.900389 34.1817C1.42398 34.0972 1.95324 34.0538 2.48345 34.0517C56.843 34.0457 111.202 34.0437 165.561 34.0459C165.738 34.033 165.915 34.0347 166.092 34.0511C166.832 34.1811 167.961 33.9166 167.997 35.0017C168.034 36.133 166.89 35.8816 166.156 36.0083C165.847 36.0381 165.537 36.0416 165.228 36.0187H83.8905Z" fill="#6C6C86"/>
<path d="M84.035 0.0194859C85.9586 0.00854539 87.8648 0.389239 89.64 1.13892C91.4152 1.8886 93.0233 2.99195 94.3684 4.3833C95.7136 5.77465 96.7684 7.42557 97.47 9.23782C98.1717 11.0501 98.5059 12.9866 98.4527 14.9322C98.3999 16.8579 97.9714 18.754 97.1918 20.5115C96.4122 22.2689 95.2969 23.8531 93.91 25.173C92.5232 26.4928 90.8921 27.5222 89.1107 28.2019C87.3292 28.8817 85.4325 29.1984 83.5297 29.1339C81.6268 29.0693 79.7554 28.6248 78.0229 27.8259C76.2904 27.027 74.7312 25.8894 73.4348 24.4785C72.1384 23.0677 71.1304 21.4115 70.4689 19.6051C69.8074 17.7988 69.5053 15.8779 69.5801 13.953C69.7428 10.1906 71.339 6.63815 74.0339 4.04049C76.7288 1.44284 80.313 0.0017749 84.035 0.0194859ZM83.9226 28.3998C86.6455 28.4148 89.3114 27.611 91.582 26.0905C93.8527 24.57 95.6258 22.4013 96.6763 19.8596C97.7269 17.3178 98.0076 14.5177 97.4827 11.8143C96.9579 9.11089 95.6513 6.62617 93.7285 4.67537C91.8058 2.72457 89.3537 1.39562 86.6833 0.857122C84.0129 0.318625 81.2447 0.594856 78.7297 1.65077C76.2147 2.70669 74.0664 4.4947 72.5573 6.78794C71.0483 9.08117 70.2465 11.7763 70.2537 14.5313C70.28 18.1946 71.7273 21.701 74.284 24.295C76.8407 26.889 80.3021 28.3631 83.9226 28.3998Z" fill="#6C6C86"/>
<path d="M62.2325 51.0737C62.6094 51.2687 62.7578 51.3512 62.9126 51.422C64.0391 51.7989 64.9938 52.5735 65.6021 53.6042C66.2104 54.6349 66.4315 55.8528 66.2251 57.0349C66.061 58.1957 65.5313 59.2719 64.7146 60.1037C63.8979 60.9355 62.8378 61.4787 61.6917 61.6524C59.3582 61.8778 57.0119 61.9347 54.6704 61.8226C53.7848 61.8441 54.0115 61.1559 54.0102 60.6699C53.998 56.7328 54.0031 52.7957 54.0038 48.8586C54.0038 46.6668 54.0372 44.4738 53.9858 42.2827C53.9665 41.4477 54.2427 41.182 55.048 41.2294C57.0795 41.1398 59.1149 41.2267 61.1317 41.4893C62.4198 41.6705 63.5875 42.3522 64.3871 43.3899C65.1868 44.4275 65.5556 45.7395 65.4153 47.0476C65.3146 47.9543 64.9622 48.8136 64.3989 49.5261C63.8357 50.2386 63.0846 50.7752 62.2325 51.0737ZM54.7879 56.2779C54.7879 57.5775 54.7879 58.8756 54.7879 60.1721C54.7879 60.6309 54.7372 61.0884 55.4301 61.0611C57.3311 61.1256 59.2341 61.0791 61.1298 60.922C62.3352 60.8749 63.4727 60.3452 64.2921 59.4494C65.1115 58.5537 65.5457 57.3653 65.4991 56.1457C65.4525 54.9261 64.929 53.7751 64.0437 52.9461C63.1584 52.117 61.9839 51.6777 60.7785 51.7248C59.0567 51.6293 57.326 51.7099 55.6003 51.6657C54.9581 51.6488 54.7584 51.8853 54.7776 52.5182C54.8181 53.7704 54.7905 55.0245 54.7879 56.2779ZM54.7879 46.4758C54.7879 47.6825 54.7879 48.8891 54.7879 50.0958C54.7879 50.5175 54.7706 50.9087 55.38 50.8834C57.277 50.9778 59.1784 50.898 61.0611 50.6449C62.0572 50.5078 62.9689 50.0052 63.623 49.2326C64.277 48.4601 64.6278 47.4714 64.6087 46.4544C64.6079 45.4399 64.2447 44.46 63.5862 43.695C62.9277 42.9301 62.0181 42.4317 61.0251 42.2918C59.1874 42.0371 57.3309 41.9489 55.4777 42.028C54.8354 41.9987 54.7757 42.3483 54.7834 42.8565C54.8008 44.0625 54.7879 45.2691 54.7879 46.4758Z" fill="#6C6C86"/>
<path d="M103.386 51.5091C103.386 48.4629 103.408 45.4173 103.371 42.3717C103.361 41.5556 103.499 41.1527 104.441 41.2209C106.344 41.1852 108.247 41.2503 110.142 41.4159C111.336 41.5789 112.447 42.1249 113.312 42.9737C114.177 43.8225 114.75 44.9295 114.947 46.1321C115.205 47.3278 115.055 48.5764 114.522 49.6752C113.99 50.774 113.106 51.6584 112.014 52.1849C111 52.708 110.929 53.0725 111.506 54.0121C112.813 56.1382 114.001 58.3397 115.204 60.5295C115.407 60.9005 116.077 61.421 115.525 61.7368C114.906 62.0929 114.712 61.256 114.467 60.8271C113.202 58.6224 111.915 56.4274 110.736 54.1758C110.586 53.7867 110.309 53.4615 109.95 53.2543C109.592 53.0471 109.174 52.9705 108.767 53.0374C107.573 53.1187 106.375 53.1198 105.181 53.0407C104.332 52.9893 104.138 53.3136 104.154 54.1141C104.201 56.3078 104.183 58.5035 104.154 60.6978C104.148 61.0805 104.422 61.781 103.743 61.7485C103.111 61.7193 103.396 61.0338 103.393 60.6439C103.375 57.6009 103.386 54.5547 103.386 51.5091ZM104.172 47.0632C104.172 48.3628 104.23 49.6624 104.152 50.962C104.095 51.9269 104.321 52.3376 105.373 52.2544C106.649 52.1537 107.941 52.2401 109.226 52.2284C110.481 52.2855 111.707 51.8393 112.639 50.9868C113.571 50.1344 114.133 48.9444 114.202 47.6753C114.351 46.4374 114.026 45.189 113.296 44.1849C112.565 43.1807 111.483 42.4967 110.271 42.2723C108.56 42.0433 106.834 41.9609 105.109 42.026C104.315 41.9734 104.136 42.3074 104.161 43.0358C104.206 44.375 104.173 45.722 104.172 47.0632Z" fill="#6C6C86"/>
<path d="M14.6348 56.1402V57.2149C14.7129 57.8303 14.6551 58.4557 14.4656 59.0458C14.276 59.6359 13.9595 60.1761 13.5387 60.6275C13.1179 61.0788 12.6033 61.4301 12.0322 61.656C11.461 61.8819 10.8474 61.9767 10.2356 61.9337C9.18485 62.1448 8.10087 62.117 7.06207 61.8522C6.02326 61.5874 5.05561 61.0923 4.22912 60.4027C3.40264 59.7131 2.73798 58.8462 2.28324 57.8648C1.82849 56.8834 1.59503 55.812 1.59975 54.7282C1.02824 51.5412 1.2983 48.2581 2.38261 45.2106C2.9071 43.6634 4.00627 42.3835 5.44729 41.6421C6.88831 40.9006 8.55799 40.7559 10.1027 41.2384C11.1757 41.5412 12.146 42.1361 12.9078 42.9585C13.6696 43.7808 14.1937 44.799 14.4228 45.902C14.5012 46.2042 14.8274 46.6298 14.2828 46.7909C13.7691 46.9436 13.7325 46.4212 13.6406 46.1236C13.4337 45.2253 13.0145 44.3913 12.4189 43.693C11.8234 42.9947 11.0694 42.453 10.2215 42.1144C9.59286 41.8465 8.9181 41.7071 8.23602 41.7042C7.55395 41.7013 6.87805 41.8349 6.24723 42.0974C5.61641 42.3599 5.04313 42.746 4.56041 43.2336C4.07769 43.7212 3.69506 44.3006 3.43455 44.9384C2.46621 47.0352 1.98202 49.3274 2.01863 51.6416C2.05523 53.9557 2.61168 56.2311 3.64584 58.2955C4.12859 59.0883 4.77396 59.7671 5.53831 60.2858C6.30265 60.8045 7.16816 61.1511 8.07631 61.3022C8.98447 61.4534 9.9141 61.4054 10.8024 61.1617C11.6906 60.918 12.5168 60.4841 13.2251 59.8895C13.4348 59.7297 13.6024 59.5202 13.7131 59.2794C13.8238 59.0385 13.8741 58.7738 13.8596 58.5086C13.8262 57.1213 13.8089 55.7314 13.866 54.3461C13.8988 53.5436 13.6875 53.2226 12.8385 53.2713C11.6029 53.3421 10.3595 53.2934 9.12008 53.2856C8.82466 53.2856 8.41364 53.3675 8.38795 52.9263C8.35199 52.3369 8.85291 52.5072 9.15861 52.5039C10.7083 52.4857 12.2586 52.5201 13.8076 52.4844C14.4363 52.4695 14.6746 52.6703 14.6425 53.3201C14.602 54.2584 14.6348 55.1999 14.6348 56.1402Z" fill="#6C6C86"/>
<path d="M120.441 51.5715C120.441 48.483 120.464 45.3939 120.426 42.3061C120.416 41.5185 120.598 41.2092 121.447 41.2216C124.634 41.2697 127.821 41.2346 131.008 41.2508C131.356 41.2508 131.947 41.0266 131.945 41.6459C131.945 42.2788 131.346 42.0202 131.008 42.0228C128.131 42.0436 125.252 42.076 122.376 42.0111C121.422 41.9896 121.187 42.295 121.216 43.2164C121.28 45.3185 121.299 47.4264 121.211 49.5259C121.164 50.6384 121.584 50.8587 122.574 50.8307C124.83 50.7657 127.089 50.7852 129.346 50.8307C129.782 50.8398 130.612 50.4408 130.599 51.2856C130.59 51.9815 129.824 51.6559 129.406 51.6618C127.06 51.6943 124.713 51.7047 122.367 51.6585C121.554 51.643 121.188 51.7989 121.212 52.7411C121.276 55.1564 121.266 57.5756 121.217 59.9915C121.199 60.8362 121.489 61.0533 122.286 61.0416C125.163 61.0006 128.041 61.0143 130.919 61.0416C131.287 61.0448 131.964 60.7485 131.935 61.4756C131.912 62.0487 131.306 61.8168 130.955 61.8187C127.812 61.8363 124.668 61.8012 121.526 61.8466C120.649 61.859 120.402 61.5822 120.418 60.7024C120.473 57.6594 120.441 54.6151 120.441 51.5715Z" fill="#6C6C86"/>
<path d="M83.9695 61.4282C83.9592 61.6147 83.922 61.7797 83.6914 61.8012C83.36 61.8323 83.2168 61.6244 83.1269 61.3508C82.8058 60.3762 82.4905 59.3976 82.1706 58.4216C81.2812 55.7061 81.2812 55.708 78.4298 55.7119C76.8345 55.7119 75.2373 55.7522 73.6446 55.6911C73.4968 55.6603 73.3442 55.6608 73.1966 55.6926C73.0489 55.7245 72.9094 55.7869 72.7868 55.8761C72.6643 55.9652 72.5613 56.0791 72.4844 56.2106C72.4076 56.3421 72.3585 56.4882 72.3403 56.6398C71.9254 58.1467 71.4225 59.6289 70.9274 61.1124C70.8227 61.4262 70.7232 61.9123 70.255 61.7882C69.6533 61.6283 70.0778 61.1936 70.1638 60.9265C72.1885 54.6348 74.2237 48.3461 76.2693 42.0604C76.3933 41.6777 76.4325 41.2495 76.979 41.2424C77.4491 41.2365 77.5384 41.5725 77.6533 41.9279C79.696 48.2599 81.7431 54.5906 83.7948 60.92C83.8513 61.0903 83.9111 61.2586 83.9695 61.4282ZM81.023 54.8653L76.9771 42.3756L72.9221 54.8653H81.023Z" fill="#6C6C86"/>
<path d="M136.412 61.1917C136.476 60.9811 136.581 60.6393 136.691 60.3001C138.63 54.3134 140.574 48.3281 142.521 42.3444C142.66 41.9175 142.618 41.2644 143.283 41.2443C144.042 41.2209 143.99 41.9396 144.139 42.4029C146.139 48.5109 148.125 54.6233 150.096 60.74C150.2 61.0649 150.635 61.5737 150.085 61.7596C149.462 61.9701 149.471 61.2846 149.34 60.896C148.868 59.5015 148.382 58.1103 147.969 56.697C147.766 56.0005 147.475 55.6717 146.69 55.6905C144.433 55.7451 142.173 55.736 139.916 55.6951C139.777 55.6742 139.635 55.6817 139.499 55.7172C139.363 55.7528 139.236 55.8155 139.124 55.9019C139.012 55.9882 138.919 56.0964 138.849 56.2199C138.78 56.3434 138.735 56.4798 138.719 56.621C138.269 58.1636 137.724 59.675 137.233 61.2072C137.131 61.5263 137.029 61.8245 136.641 61.807C136.346 61.794 136.315 61.5705 136.412 61.1917ZM143.491 42.8519L143.179 42.8603L139.288 54.8653H147.369L143.491 42.8519Z" fill="#6C6C86"/>
<path d="M88.7161 51.511C88.7161 48.5148 88.702 45.518 88.7315 42.5211C88.736 42.0949 88.4245 41.3073 89.0757 41.3021C89.858 41.2956 89.5131 42.1319 89.515 42.5842C89.5375 48.2647 89.5523 53.9452 89.4964 59.625C89.4855 60.7348 89.7835 61.0857 90.9003 61.0545C93.6849 60.9766 96.4734 61.0188 99.26 61.0422C99.5946 61.0422 100.187 60.7823 100.207 61.4035C100.227 62.0247 99.6325 61.8167 99.2895 61.8187C96.1041 61.8362 92.9187 61.7992 89.7347 61.8492C88.8837 61.8629 88.7007 61.5653 88.711 60.7693C88.7508 57.6841 88.727 54.5962 88.727 51.511H88.7161Z" fill="#6C6C86"/>
<path d="M20.0223 51.4402C20.0223 48.5285 20.0005 45.6168 20.0435 42.7057C20.0512 42.2216 19.6113 41.3119 20.5027 41.3171C21.2361 41.3216 20.8963 42.1833 20.8989 42.6472C20.9259 48.2913 20.9509 53.9354 20.888 59.5789C20.8751 60.7849 21.2303 61.0844 22.3869 61.0481C25.1311 60.961 27.8798 61.0156 30.6259 61.0416C30.9669 61.0448 31.5764 60.7849 31.5969 61.3756C31.6213 62.0903 30.9547 61.8129 30.579 61.8161C27.4322 61.8434 24.2853 61.8109 21.143 61.8597C20.2695 61.8733 19.9979 61.5958 20.0114 60.7128C20.057 57.6224 20.0287 54.5313 20.0287 51.4402H20.0223Z" fill="#6C6C86"/>
<path d="M155.038 51.4896C155.038 48.4447 155.029 45.4004 155.05 42.3561C155.05 41.9714 154.8 41.282 155.469 41.3086C156.116 41.3346 155.826 42.0163 155.827 42.399C155.847 48.1744 155.869 53.9504 155.816 59.7251C155.806 60.8109 156.147 61.0727 157.165 61.0494C159.997 60.9844 162.832 61.013 165.666 61.0279C166.008 61.0279 166.606 60.805 166.584 61.4308C166.563 62.0078 165.983 61.8207 165.621 61.8246C162.433 61.8369 159.245 61.8057 156.057 61.8466C155.222 61.8577 155.013 61.5562 155.023 60.7569C155.061 57.6678 155.038 54.5787 155.038 51.4896Z" fill="#6C6C86"/>
<path d="M48.3703 56.9751C48.1624 57.8597 47.7746 58.6907 47.2316 59.4151L46.7821 58.972C47.7654 56.8896 48.3257 54.6288 48.4298 52.3234C48.534 50.018 48.1798 47.7149 47.3883 45.5505C47.1325 44.5932 46.6086 43.7311 45.8797 43.0681C45.1508 42.4051 44.248 41.9695 43.28 41.8137C42.312 41.6578 41.3202 41.7885 40.4239 42.1899C39.5277 42.5913 38.7652 43.2464 38.2284 44.0761L37.6569 43.7395C38.2055 42.7407 39.0486 41.9401 40.0685 41.4492C41.0884 40.9584 42.2342 40.8018 43.3462 41.0013C44.523 41.2169 45.6098 41.7818 46.4683 42.6242C47.3268 43.4665 47.9182 44.5483 48.1673 45.7318C48.2233 45.8928 48.3 46.0458 48.3953 46.1866L48.4088 46.2406C49.0904 48.8138 49.2628 51.4979 48.9162 54.1388C48.9047 54.2046 48.9006 54.2715 48.904 54.3383C48.8899 55.2402 48.7114 56.1317 48.3773 56.968L48.3703 56.9751Z" fill="#5F6081"/>
<path d="M36.7128 45.6005C36.8633 44.9073 37.1901 44.2658 37.6607 43.7395L38.2304 44.0761C37.2645 45.6196 36.7331 47.4005 36.6936 49.227C36.6589 51.0432 36.6865 52.8606 36.6871 54.6775C36.6808 54.7252 36.6839 54.7738 36.6961 54.8204C37.0072 56.4825 37.6402 58.0659 38.5586 59.4794C38.5031 59.5805 38.4189 59.6624 38.3168 59.7146C38.2148 59.7667 38.0997 59.7867 37.9863 59.7718C36.999 58.5739 36.3649 57.119 36.1567 55.5735C35.6809 52.9057 35.6846 50.1729 36.1676 47.5063C36.2221 46.8639 36.4022 46.2388 36.6974 45.6674L36.7128 45.6005Z" fill="#5F6081"/>
<path d="M45.5105 61.0767C45.2795 61.3749 44.9445 61.5725 44.5741 61.629L44.5227 61.6433C43.6268 62.0052 42.6526 62.1226 41.6977 61.9837C40.7428 61.8448 39.8408 61.4545 39.0819 60.8518L39.36 60.2742C40.1677 60.8823 41.1316 61.2421 42.1362 61.3103C43.1408 61.3785 44.1435 61.1523 45.0243 60.6588L45.5105 61.0767Z" fill="#5F6081"/>
<path d="M47.2316 59.4151C46.8656 60.1544 46.2566 60.7416 45.5092 61.076L45.0244 60.6595L46.7834 58.97L47.2316 59.4151Z" fill="#5F6081"/>
<path d="M39.36 60.2741L39.0819 60.8518C38.6112 60.6221 38.2277 60.2428 37.9902 59.7718C38.1035 59.7866 38.2187 59.7667 38.3207 59.7146C38.4227 59.6624 38.5069 59.5805 38.5624 59.4794L39.36 60.2741Z" fill="#6C6C86"/>
<path d="M36.7158 45.6025L36.6964 45.6675L36.6576 45.648L36.7158 45.6025Z" fill="#6C6C86"/>
<path d="M48.4105 46.2401L48.3973 46.1873L48.45 46.2137L48.4105 46.2401Z" fill="#6C6C86"/>
<path d="M48.9059 54.3383C48.9026 54.2715 48.9067 54.2046 48.9182 54.1388L48.9829 54.2421L48.9059 54.3383Z" fill="#6C6C86"/>
<path d="M48.3716 56.9739L48.3781 56.9674L48.391 56.9349L48.3716 56.9739Z" fill="#6C6C86"/>
<path d="M44.5247 61.6462L44.5774 61.6264L44.5313 61.6858L44.5247 61.6462Z" fill="#6C6C86"/>
<path d="M36.6871 54.6775L36.7421 54.7516L36.6962 54.8211C36.6838 54.7743 36.6808 54.7255 36.6871 54.6775Z" fill="#6C6C86"/>
<path d="M82.2663 6.53432C85.9737 6.85449 89.4595 8.45525 92.1385 11.0679C92.491 11.4019 92.7229 11.7054 92.4557 12.2194C92.3859 12.3325 92.3393 12.4587 92.3186 12.5904C92.298 12.7221 92.3038 12.8567 92.3356 12.9861C93.1211 14.3682 92.0685 14.9842 91.2612 15.6704C90.5231 16.3125 89.745 16.9061 88.9319 17.4476C88.5601 17.8115 88.1043 18.0756 87.606 18.2159C87.1077 18.3562 86.5827 18.3682 86.0786 18.251C85.5745 18.1338 85.1073 17.8909 84.7196 17.5445C84.3318 17.1981 84.0358 16.7592 83.8584 16.2676C82.4104 13.91 81.261 11.3776 80.4373 8.72997C80.3492 8.45661 80.3315 8.16502 80.3858 7.88279C80.4402 7.60057 80.5648 7.33705 80.748 7.1172C80.9311 6.89734 81.1667 6.72841 81.4324 6.62641C81.6981 6.52441 81.9851 6.49272 82.2663 6.53432Z" fill="#5F6081"/>
<path d="M90.6138 25.1626C88.6485 26.4345 86.3681 27.119 84.0352 27.1371C81.7023 27.1553 79.4117 26.5064 77.4272 25.2652C77.0161 24.923 76.7096 24.4694 76.5436 23.9575C76.3776 23.4456 76.3588 22.8965 76.4896 22.3743C76.6082 21.921 76.8988 21.5334 77.2983 21.2957C77.6978 21.0581 78.1739 20.9896 78.6231 21.1053C79.6792 21.2142 80.7457 21.1574 81.7847 20.937C82.8835 20.7823 84.0035 20.2423 84.8596 21.4568C84.8729 21.4754 84.8899 21.4908 84.9097 21.502C84.9294 21.5132 84.9513 21.52 84.9739 21.5218C87.7868 21.256 88.4541 24.195 90.6138 25.1626Z" fill="#5F6081"/>
<path d="M85.0144 1.84152C87.1866 2.01112 89.2779 2.74916 91.0831 3.98323C92.8884 5.21729 94.3455 6.90498 95.3117 8.88074C95.7497 9.70207 95.6906 10.4812 95.0631 10.8951C94.7313 11.1149 94.3338 11.2102 93.9397 11.1644C93.5456 11.1185 93.1799 10.9345 92.9059 10.6443C89.9711 7.65973 86.0381 5.89535 81.8817 5.6987C81.454 5.67855 81.0918 5.61682 80.8959 5.18276C80.7 4.7487 81.0429 4.51802 81.2581 4.26005C81.6852 3.74737 82.1257 3.24313 82.5881 2.76553C83.5848 1.73041 83.5919 1.73756 85.0144 1.84152Z" fill="#5F6081"/>
<path d="M79.8555 20.2684C76.9758 20.3658 75.8738 19.2514 76.0696 16.6893C76.2755 13.918 77.0174 11.2146 78.2532 8.73258C78.415 8.40768 78.4933 7.86511 79.0238 7.95998C79.4342 8.03275 79.4342 8.47981 79.5434 8.8151C80.5585 12.0087 81.9992 15.0474 83.8256 17.8472C83.9731 18.0091 84.0731 18.2094 84.1144 18.4255C84.1557 18.6417 84.1367 18.8652 84.0595 19.0711C83.9823 19.2769 83.8499 19.4569 83.6773 19.5909C83.5046 19.7249 83.2985 19.8076 83.082 19.8297C82.0309 20.1221 80.9456 20.2696 79.8555 20.2684Z" fill="#5F6081"/>
<path d="M94.5384 14.6866C95.3508 14.6275 96.4863 16.187 96.2589 17.2774C95.6657 20.1463 94.0761 22.7052 91.7782 24.4901C91.3286 24.8507 91.0756 24.6532 90.7796 24.3731C89.752 23.3984 88.6962 22.4432 87.713 21.4211C87.5797 21.2315 87.4851 21.017 87.4348 20.79C87.3845 20.563 87.3793 20.3281 87.4198 20.0991C87.4602 19.8701 87.5453 19.6516 87.6702 19.4563C87.7951 19.261 87.9572 19.0928 88.1471 18.9616C89.9893 17.9895 91.6461 16.6938 93.0401 15.135C93.4839 14.6243 94.0112 14.8309 94.5384 14.6866Z" fill="#5F6081"/>
<path d="M71.4848 14.6658C71.4906 13.3486 71.6617 12.0374 71.9941 10.7638C72.1654 9.63282 72.742 8.60516 73.6141 7.87677C74.4862 7.14838 75.5927 6.77021 76.7227 6.81437C77.7933 6.7221 78.1806 7.15941 77.7047 8.1185C76.1444 11.1868 75.2901 14.5724 75.2058 18.022C75.1833 19.0974 74.2733 19.5009 73.5014 19.7277C72.5856 19.9961 72.2561 19.2131 72.0397 18.4216C71.6671 17.2055 71.48 15.939 71.4848 14.6658Z" fill="#5F6081"/>
<path d="M78.2859 3.26065C78.6288 5.19833 77.4863 6.13339 74.5007 6.26334C75.5308 4.99506 76.8228 3.97019 78.2859 3.26065Z" fill="#6C6C86"/>
<path d="M82.1244 2.0163C81.5355 2.69208 81.0224 3.27625 80.515 3.86496C80.2877 4.12942 80.1066 4.46277 79.6634 4.31332C79.237 4.16971 79.2518 3.80258 79.1972 3.45169C79.1278 3.00074 79.2235 2.66024 79.6994 2.52768C80.4669 2.19841 81.2908 2.02466 82.1244 2.0163Z" fill="#6C6C86"/>
<path d="M79.3449 5.1873C79.4673 5.18282 79.5893 5.20455 79.7028 5.25105C79.8164 5.29755 79.9189 5.36779 80.0038 5.45716C80.0887 5.54652 80.1539 5.65301 80.1953 5.76965C80.2367 5.8863 80.2533 6.01047 80.244 6.13405C80.2545 6.25809 80.2376 6.38293 80.1944 6.49952C80.1513 6.6161 80.083 6.7215 79.9946 6.80806C79.9061 6.89461 79.7998 6.96015 79.6832 6.99991C79.5666 7.03967 79.4427 7.05265 79.3205 7.03791C79.1986 7.05067 79.0754 7.03531 78.9602 6.99298C78.845 6.95066 78.7408 6.88248 78.6554 6.79356C78.57 6.70463 78.5056 6.59728 78.4671 6.47956C78.4286 6.36185 78.4169 6.23683 78.433 6.1139C78.4263 5.99079 78.4454 5.86764 78.4888 5.75244C78.5322 5.63724 78.5991 5.53256 78.6851 5.44519C78.7711 5.35783 78.8742 5.28972 78.9879 5.2453C79.1016 5.20087 79.2232 5.18111 79.3449 5.1873Z" fill="#6C6C86"/>
<path d="M94.1981 11.9308C94.803 12.0212 95.1184 12.3571 95.0766 12.9328C95.0807 13.0574 95.0576 13.1814 95.0087 13.2959C94.9599 13.4104 94.8866 13.5125 94.7941 13.5949C94.7017 13.6773 94.5923 13.738 94.474 13.7727C94.3556 13.8073 94.2311 13.8149 94.1094 13.7951C93.5025 13.7613 93.2694 13.3903 93.2848 12.8113C93.3041 12.1856 93.6843 11.9718 94.1981 11.9308Z" fill="#6C6C86"/>
<path d="M75.9142 19.6452C76.1345 19.6315 76.4922 19.9097 76.532 20.4899C76.5513 20.613 76.5432 20.7388 76.5083 20.8583C76.4733 20.9777 76.4125 21.0878 76.3301 21.1804C76.2477 21.273 76.146 21.3458 76.0322 21.3935C75.9185 21.4412 75.7957 21.4626 75.6727 21.4562C75.5522 21.4808 75.4278 21.4771 75.3089 21.4453C75.1901 21.4135 75.0801 21.3545 74.9874 21.2729C74.8946 21.1913 74.8217 21.0892 74.7742 20.9745C74.7266 20.8598 74.7058 20.7356 74.7132 20.6114C74.6882 20.0325 74.9444 19.6881 75.9142 19.6452Z" fill="#6C6C86"/>
<path d="M85.629 18.9349C85.7527 18.9248 85.8773 18.9405 85.9948 18.981C86.1123 19.0216 86.2204 19.0862 86.3122 19.1707C86.404 19.2553 86.4777 19.3581 86.5286 19.4727C86.5796 19.5873 86.6067 19.7112 86.6083 19.8369C86.6139 19.9611 86.5935 20.0851 86.5486 20.2009C86.5037 20.3166 86.4353 20.4215 86.3477 20.5088C86.2601 20.596 86.1554 20.6637 86.0403 20.7073C85.9252 20.751 85.8024 20.7697 85.6797 20.7622C85.5687 20.7698 85.4574 20.7541 85.3527 20.7162C85.248 20.6783 85.1522 20.619 85.0712 20.5419C84.9901 20.4648 84.9257 20.3716 84.8819 20.2682C84.8381 20.1648 84.8159 20.0533 84.8166 19.9408C84.771 19.3391 85.1203 19.0591 85.629 18.9349Z" fill="#6C6C86"/>
<path d="M95.9519 11.2947C96.5063 12.4827 96.6987 13.8107 96.5049 15.1096C95.2789 13.8438 96.2403 12.4916 95.9519 11.2947Z" fill="#6C6C86"/>
<path d="M73.9979 21.5198C74.5803 22.2755 76.0741 22.3282 75.6644 23.8753C74.8739 23.3187 74.2167 22.59 73.741 21.7427L73.9979 21.5198Z" fill="#6C6C86"/>
<path d="M73.7409 21.7427C73.4924 21.4074 73.1366 21.1287 73.1629 20.5659C73.8296 20.575 73.8919 21.0676 73.9978 21.5198L73.7409 21.7427Z" fill="#6C6C86"/>
</g>
<defs>
<clipPath id="clip0_3_53">
<rect width="168" height="62" fill="white"/>
</clipPath>
</defs>
</svg>
